HIERARCHY
ROOT Hips
{
	OFFSET -224.689499 91.882057 -431.625488
	CHANNELS 6 Xposition Yposition Zposition Zrotation Yrotation Xrotation 
	JOINT LeftUpLeg
	{
		OFFSET 0.103456 1.857840 10.548509
		CHANNELS 3 Zrotation Yrotation Xrotation
		JOINT LeftLeg
		{
			OFFSET 43.500000 -0.000042 0.000010
			CHANNELS 3 Zrotation Yrotation Xrotation
			JOINT LeftFoot
			{
				OFFSET 42.372192 0.000019 0.000000
				CHANNELS 3 Zrotation Yrotation Xrotation
				JOINT LeftToe
				{
					OFFSET 17.299999 -0.000000 0.000003
					CHANNELS 3 Zrotation Yrotation Xrotation
					End Site
					{
						OFFSET 0.000000 0.000000 0.000000
					}
				}
			}
		}
	}
	JOINT RightUpLeg
	{
		OFFSET 0.103456 1.857823 -10.548508
		CHANNELS 3 Zrotation Yrotation Xrotation
		JOINT RightLeg
		{
			OFFSET 43.500042 -0.000027 0.000004
			CHANNELS 3 Zrotation Yrotation Xrotation
			JOINT RightFoot
			{
				OFFSET 42.372261 0.000000 0.000010
				CHANNELS 3 Zrotation Yrotation Xrotation
				JOINT RightToe
				{
					OFFSET 17.299994 -0.000006 0.000017
					CHANNELS 3 Zrotation Yrotation Xrotation
					End Site
					{
						OFFSET 0.000000 0.000000 0.000000
					}
				}
			}
		}
	}
	JOINT Spine
	{
		OFFSET 6.901967 -2.603732 -0.000003
		CHANNELS 3 Zrotation Yrotation Xrotation
		JOINT Spine1
		{
			OFFSET 12.588099 0.000010 0.000008
			CHANNELS 3 Zrotation Yrotation Xrotation
			JOINT Spine2
			{
				OFFSET 12.343201 -0.000018 -0.000005
				CHANNELS 3 Zrotation Yrotation Xrotation
				JOINT Neck
				{
					OFFSET 25.832890 0.000023 0.000007
					CHANNELS 3 Zrotation Yrotation Xrotation
					JOINT Head
					{
						OFFSET 11.766609 -0.000008 -0.000006
						CHANNELS 3 Zrotation Yrotation Xrotation
						End Site
						{
							OFFSET 0.000000 0.000000 0.000000
						}
					}
				}
				JOINT LeftShoulder
				{
					OFFSET 19.745909 -1.480347 6.000101
					CHANNELS 3 Zrotation Yrotation Xrotation
					JOINT LeftArm
					{
						OFFSET 11.284133 0.000018 -0.000020
						CHANNELS 3 Zrotation Yrotation Xrotation
						JOINT LeftForeArm
						{
							OFFSET 33.000050 -0.000013 0.000019
							CHANNELS 3 Zrotation Yrotation Xrotation
							JOINT LeftHand
							{
								OFFSET 25.200005 0.000032 0.000011
								CHANNELS 3 Zrotation Yrotation Xrotation
								End Site
								{
									OFFSET 0.000000 0.000000 0.000000
								}
							}
						}
					}
				}
				JOINT RightShoulder
				{
					OFFSET 19.746101 -1.480358 -6.000078
					CHANNELS 3 Zrotation Yrotation Xrotation
					JOINT RightArm
					{
						OFFSET 11.284140 -0.000000 -0.000001
						CHANNELS 3 Zrotation Yrotation Xrotation
						JOINT RightForeArm
						{
							OFFSET 33.000103 0.000016 -0.000001
							CHANNELS 3 Zrotation Yrotation Xrotation
							JOINT RightHand
							{
								OFFSET 25.199762 0.000123 0.000432
								CHANNELS 3 Zrotation Yrotation Xrotation
								End Site
								{
									OFFSET 0.000000 0.000000 0.000000
								}
							}
						}
					}
				}
			}
		}
	}
}
MOTION
Frames: 15
Frame Time: 0.033333
-224.689499 91.882057 -431.625488 91.911438 5.797277 88.877003 -173.825528 -1.357308 177.800425 -8.189491 -1.405895 -8.436305 72.185442 4.507118 -5.155255 21.454553 0.003093 -0.000001 -171.432885 6.949201 -171.416698 -10.045297 3.093132 10.020026 77.536437 -5.597355 6.281055 21.454560 -0.003116 -0.000019 6.938949 -0.425479 0.083695 3.863257 -0.856897 0.159520 3.545122 -0.855727 0.162024 5.062785 -5.967228 -2.955440 -18.981926 10.359066 -7.856502 -95.384773 -86.109622 -86.694348 -1.744817 13.837001 -10.454342 -23.351689 -15.926113 1.189659 8.269972 -3.007814 30.896924 -101.166918 82.060809 81.176272 -5.484384 -12.039369 6.737670 -22.244692 15.926982 -1.200329 7.052535 3.369541 -14.328745 
-224.692001 91.882378 -431.627106 91.911438 5.800984 88.877010 -173.824011 -1.358801 177.812309 -8.188872 -1.407787 -8.446553 72.185442 4.511767 -5.155251 21.454553 0.003096 -0.000000 -171.432871 6.948196 -171.440890 -10.053369 3.093141 10.031406 77.539921 -5.597371 6.284108 21.454558 -0.003101 -0.000016 6.938956 -0.425475 0.083689 3.864557 -0.856896 0.159521 3.546436 -0.855739 0.162017 5.070362 -5.961699 -2.948828 -18.979439 10.347429 -7.843744 -95.554845 -86.094398 -86.525226 -1.771234 13.811279 -10.493056 -23.340937 -15.908619 1.189659 8.258075 -3.011261 30.884493 -101.216874 82.066075 81.125845 -5.469465 -12.044232 6.762006 -22.263239 15.927381 -1.200320 7.045754 3.391573 -14.372210 
-224.714798 91.882637 -431.638702 91.906342 5.833432 88.884257 -173.808630 -1.380715 177.844520 -8.212512 -1.418305 -8.461156 72.190687 4.523060 -5.153861 21.454553 0.003094 0.000001 -171.432871 6.930689 -171.425905 -10.101487 3.086719 10.024016 77.563731 -5.587697 6.304093 21.454557 -0.003106 -0.000017 6.946524 -0.425478 0.083692 3.879719 -0.856890 0.159521 3.561585 -0.855740 0.162021 5.119895 -5.978805 -2.900661 -19.015680 10.383657 -7.811531 -95.425311 -86.045514 -86.659323 -1.834494 13.815129 -10.613020 -23.375283 -15.924484 1.189653 8.254874 -3.091655 30.828322 -101.381352 82.080514 80.959277 -5.438445 -12.074318 6.762907 -22.289834 15.967946 -1.200341 7.010451 3.451661 -14.264404 
-224.735596 91.882149 -431.649902 91.899826 5.856703 88.896046 -173.808807 -1.412283 177.769101 -8.252284 -1.426530 -8.399510 72.199587 4.470671 -5.181768 21.454553 0.003095 -0.000000 -171.435685 6.901401 -171.416698 -10.140930 3.067797 10.032542 77.565370 -5.597645 6.287301 21.454560 -0.003110 -0.000017 6.949123 -0.427784 0.083689 3.884862 -0.856912 0.159520 3.566728 -0.855733 0.173241 5.195018 -5.944374 -2.903735 -19.038746 10.370597 -7.803934 -95.728277 -86.031478 -86.356609 -1.891014 13.719202 -10.661566 -23.425531 -15.880784 1.189653 8.205700 -3.135669 30.962853 -101.332325 82.033338 81.012519 -5.445637 -12.116721 6.771695 -22.283721 15.965632 -1.200322 7.011237 3.459554 -14.334593 
-224.754501 91.879021 -431.659393 91.895366 5.904350 88.907466 -173.775872 -1.436899 177.783663 -8.263787 -1.440772 -8.398161 72.175374 4.465269 -5.194493 21.454555 0.003086 0.000001 -171.401152 6.886007 -171.393912 -10.167315 3.062921 10.035163 77.581913 -5.594048 6.309850 21.454560 -0.003110 -0.000016 6.957459 -0.430177 0.083691 3.901542 -0.861317 0.159530 3.583414 -0.860159 0.171038 5.254614 -5.954421 -2.908915 -19.057561 10.382816 -7.814515 -95.825437 -85.986044 -86.263049 -1.931183 13.702342 -10.636448 -23.487530 -15.933762 1.189660 8.087769 -3.246714 31.042117 -101.424156 82.013134 80.921984 -5.463752 -12.111760 6.877248 -22.267349 15.885020 -1.200322 6.986743 3.455252 -14.388842 
-224.775696 91.876900 -431.673706 91.891289 5.949115 88.912595 -173.749016 -1.455898 177.800015 -8.278567 -1.444290 -8.396272 72.164084 4.462840 -5.197424 21.454551 0.003075 -0.000001 -171.380443 6.867800 -171.412026 -10.191231 3.064130 10.044554 77.588360 -5.604181 6.296722 21.454557 -0.003114 -0.000018 6.966067 -0.432610 0.083699 3.918796 -0.866990 0.159518 3.600656 -0.865868 0.164754 5.269368 -5.956285 -2.900063 -19.025070 10.403147 -7.809104 -95.873822 -85.906766 -86.221002 -2.007452 13.652932 -10.671661 -23.507372 -15.925445 1.189653 8.045159 -3.283770 31.110559 -101.576019 82.033878 80.767718 -5.453698 -12.149700 6.918343 -22.256822 15.913709 -1.200337 7.020927 3.430417 -14.273238 
-224.796707 91.876869 -431.689606 91.886753 6.002110 88.935811 -173.718840 -1.477011 177.766752 -8.297115 -1.444721 -8.368662 72.160600 4.448798 -5.178984 21.454555 0.003106 -0.000001 -171.341825 6.853389 -171.402040 -10.208519 3.067511 10.048952 77.608038 -5.605480 6.307150 21.454558 -0.003109 -0.000017 6.977534 -0.435135 0.083694 3.941676 -0.873159 0.168657 3.623548 -0.871984 0.173919 5.270580 -5.960752 -2.927074 -18.966409 10.419349 -7.837487 -95.846665 -85.911123 -86.248104 -2.053491 13.648220 -10.845363 -23.545009 -15.925761 1.189667 8.081096 -3.156457 31.108052 -101.651615 81.952995 80.698303 -5.475726 -12.188739 7.048403 -22.291041 15.920652 -1.200327 6.976419 3.434694 -14.326153 
-224.821304 91.877289 -431.711487 91.882423 6.039002 88.952607 -173.704592 -1.494591 177.805178 -8.312322 -1.436065 -8.376573 72.155512 4.444335 -5.210739 21.454551 0.003068 -0.000003 -171.322496 6.830395 -171.397341 -10.224290 3.067606 10.059395 77.608598 -5.616655 6.291969 21.454562 -0.003099 -0.000017 6.984487 -0.437896 0.083687 3.955577 -0.878745 0.172275 3.637445 -0.877558 0.177586 5.320812 -5.939000 -2.923406 -18.956292 10.395217 -7.817920 -95.838004 -85.910454 -86.256560 -2.066945 13.634533 -10.866699 -23.553581 -15.928068 1.189667 8.088549 -3.154054 31.120271 -101.795302 81.905873 80.557983 -5.480145 -12.194779 6.986317 -22.297762 15.929417 -1.200332 6.985538 3.456626 -14.368572 
-224.846802 91.877441 -431.739197 91.879220 6.078721 88.981143 -173.692339 -1.525298 177.865366 -8.326176 -1.457345 -8.393520 72.148162 4.454509 -5.217352 21.454553 0.003099 0.000000 -171.303494 6.802906 -171.391672 -10.248012 3.059372 10.077078 77.617860 -5.630278 6.288328 21.454555 -0.003112 -0.000019 6.994671 -0.441796 0.083684 3.975971 -0.885503 0.174842 3.657828 -0.884382 0.180200 5.380604 -5.916397 -2.904718 -18.958312 10.394488 -7.792544 -95.836433 -85.905762 -86.258678 -2.040051 13.634979 -10.781694 -23.581766 -15.970939 1.189665 8.066429 -3.225558 31.027575 -101.822643 81.873560 80.533149 -5.514496 -12.234751 7.034493 -22.284966 15.929632 -1.200315 6.997063 3.409170 -14.328743 
-224.869095 91.876198 -431.771606 91.873387 6.112874 89.009031 -173.688200 -1.546803 177.905746 -8.331658 -1.459277 -8.407496 72.124933 4.465070 -5.213719 21.454553 0.003086 -0.000001 -171.300489 6.774994 -171.364638 -10.274670 3.048526 10.070174 77.611358 -5.634258 6.252191 21.454555 -0.003107 -0.000017 7.005208 -0.445869 0.083693 3.997056 -0.894534 0.176777 3.678915 -0.893400 0.182212 5.424440 -5.887278 -2.901454 -18.911723 10.394897 -7.778248 -95.870946 -85.889007 -86.225415 -2.084852 13.632853 -10.850579 -23.590222 -15.971713 1.189657 8.063357 -3.260421 31.037968 -101.925376 81.838070 80.432758 -5.512580 -12.272569 7.128560 -22.290771 15.910589 -1.200327 6.966546 3.399968 -14.410304 
-224.895401 91.878220 -431.808014 91.858873 6.155755 89.029638 -173.681739 -1.578596 177.956645 -8.345569 -1.459221 -8.418798 72.100221 4.475189 -5.205071 21.454551 0.003085 -0.000001 -171.279780 6.740799 -171.351346 -10.286326 3.043937 10.067256 77.622812 -5.635591 6.281122 21.454558 -0.003111 -0.000017 7.019134 -0.449310 0.083695 4.024883 -0.901557 0.177576 3.706754 -0.900388 0.183056 5.476832 -5.887290 -2.912766 -18.892098 10.437180 -7.801580 -95.954507 -85.896493 -86.141055 -2.115974 13.661341 -10.884268 -23.602909 -16.036422 1.189658 8.061989 -3.190256 30.934309 -102.033860 81.801112 80.326986 -5.508128 -12.306199 7.111427 -22.272142 15.936312 -1.200329 6.957300 3.397008 -14.368387 
-224.915207 91.876190 -431.846497 91.859494 6.187955 89.046324 -173.675455 -1.588206 177.954923 -8.351112 -1.449442 -8.403867 72.096205 4.457239 -5.227852 21.454553 0.003089 -0.000000 -171.279479 6.728103 -171.344366 -10.300698 3.045299 10.066399 77.620954 -5.635251 6.258779 21.454562 -0.003107 -0.000018 7.031479 -0.457506 0.083688 4.049518 -0.918095 0.175876 3.731388 -0.916878 0.181421 5.527827 -5.883582 -2.938276 -18.925845 10.472729 -7.842579 -96.022713 -85.921574 -86.070417 -2.134021 13.631980 -10.873412 -23.577962 -16.037313 1.189657 8.061540 -3.180821 30.982298 -102.164604 81.789938 80.196297 -5.461864 -12.347240 7.182469 -22.299031 15.954432 -1.200323 6.936692 3.350183 -14.426179 
-224.931503 91.877617 -431.894409 91.852657 6.201982 89.062559 -173.691314 -1.599701 177.977490 -8.341527 -1.432158 -8.408399 72.064137 4.457065 -5.234625 21.454555 0.003098 0.000002 -171.306103 6.710012 -171.329654 -10.327580 3.045879 10.067761 77.630018 -5.632554 6.254487 21.454562 -0.003108 -0.000016 7.041374 -0.462942 0.083694 4.069365 -0.928840 0.168437 3.751227 -0.927672 0.174048 5.587567 -5.936512 -2.953960 -19.009183 10.555382 -7.903995 -96.031565 -85.948847 -86.059489 -2.093620 13.639770 -10.908981 -23.608081 -16.059061 1.191824 8.062418 -3.216465 30.965571 -102.175013 81.764816 80.187985 -5.510325 -12.385949 7.245787 -22.281670 15.970528 -1.200331 6.938297 3.381158 -14.365587 
-224.953995 91.879349 -431.944000 91.842412 6.219117 89.078330 -173.699811 -1.622500 178.010139 -8.323882 -1.425207 -8.413110 72.033818 4.452322 -5.256869 21.454553 0.003081 -0.000001 -171.322291 6.674696 -171.312756 -10.333619 3.046377 10.073736 77.610162 -5.645858 6.215064 21.454558 -0.003111 -0.000016 7.051902 -0.468273 0.083696 4.090466 -0.939307 0.154859 3.772328 -0.938213 0.160523 5.604775 -5.952666 -2.964828 -18.997369 10.524542 -7.903285 -95.943838 -85.914477 -86.150057 -2.112165 13.648160 -10.903393 -23.648599 -16.098845 1.193931 8.066091 -3.223312 30.879405 -102.212777 81.754024 80.150890 -5.557205 -12.374260 7.221121 -22.277832 15.959521 -1.200325 6.912212 3.408081 -14.420367 
-224.972504 91.883057 -431.997406 91.827761 6.217461 89.091171 -173.729659 -1.642810 177.980769 -8.303375 -1.399135 -8.388343 71.985611 4.429601 -5.266018 21.454553 0.003105 0.000001 -171.357808 6.643998 -171.312100 -10.333991 3.046796 10.077609 77.586578 -5.657658 6.176198 21.454557 -0.003110 -0.000019 7.059443 -0.472522 0.083698 4.105552 -0.947739 0.150651 3.787411 -0.946674 0.156385 5.604694 -5.942099 -2.966101 -18.976381 10.472012 -7.880642 -95.881943 -85.899594 -86.213455 -2.125297 13.689941 -10.976746 -23.753279 -16.143712 1.195790 8.049203 -3.236175 30.930034 -102.214443 81.734613 80.150952 -5.579998 -12.375370 7.224740 -22.303540 15.996491 -1.200328 6.877996 3.423373 -14.350757 
